<svg id="Layer_1" data-name="Layer 1" xmlns="http://www.w3.org/2000/svg" viewBox="0 0 274.26 116.47"><title>VUSE</title><path d="M45.58,96.87l-24.1-74H31.85L43.43,59.31c3.23,10,5.92,19,7.94,27.6h.27a286.11,286.11,0,0,1,8.48-27.6L72.64,22.69H82.87l-26.52,74H45.58Z" style="fill:#fff"/><path d="M100.11,22.83V66.58c0,16.56,7.4,23.56,17.23,23.56,10.9,0,18-7.27,18-23.56V22.83h9.69V66c0,22.75-12,32-28,32-15.21,0-26.66-8.75-26.66-31.64V22.83Z" style="fill:#fff"/><path d="M160.28,85.16A34.47,34.47,0,0,0,177.38,90c9.83,0,15.48-5.12,15.48-12.65,0-6.87-3.9-10.9-14-14.67-12.12-4.31-19.52-10.5-19.52-21,0-11.58,9.56-20.06,24-20.06,7.54,0,13.06,1.75,16.42,3.63l-2.56,7.81a30,30,0,0,0-14-3.5c-10.1,0-14,6.06-14,11,0,6.87,4.44,10.37,14.67,14.27,12.52,4.85,18.85,10.9,18.85,21.68,0,11.44-8.48,21.27-25.85,21.27-7.14,0-14.94-2-18.85-4.71Z" style="fill:#fff"/><rect x="215.75" y="22.83" width="39.98" height="8.08" style="fill:#fff"/><rect x="215.75" y="54.2" width="38.37" height="8.08" style="fill:#fff"/><rect x="215.75" y="88.8" width="40.79" height="8.08" style="fill:#fff"/><rect x="2.5" y="2.5" width="269.26" height="111.47" style="fill:none;stroke:#fff;stroke-miterlimit:10;stroke-width:5px"/></svg>