<?xml version="1.0" encoding="utf-8"?>
<!-- Generator: Adobe Illustrator 21.1.0, SVG Export Plug-In . SVG Version: 6.00 Build 0)  -->
<svg version="1.1" id="Layer_1" xmlns="http://www.w3.org/2000/svg" xmlns:xlink="http://www.w3.org/1999/xlink" x="0px" y="0px"
	 viewBox="0 0 274.3 116.5" style="enable-background:new 0 0 274.3 116.5;" xml:space="preserve">
<style type="text/css">
	.st0{fill:#FFFFFF;}
	.st1{fill:none;stroke:#FFFFFF;stroke-width:5;stroke-miterlimit:10;}
</style>
<title>VUSE</title>
<g>
	<path class="st0" d="M45.6,96.9l-24.1-74h10.4l11.6,36.5c3.2,10,5.9,19,7.9,27.6h0.3c2-8.6,5.1-17.9,8.5-27.6l12.5-36.6h10.2
		l-26.5,74H45.6V96.9z"/>
	<path class="st0" d="M100.1,22.8v43.8c0,16.6,7.4,23.6,17.2,23.6c10.9,0,18-7.3,18-23.6V22.8h9.7V66c0,22.8-12,32-28,32
		c-15.2,0-26.7-8.8-26.7-31.6V22.8H100.1z"/>
	<path class="st0" d="M160.3,85.2c5.1,3.1,11,4.7,17.1,4.8c9.8,0,15.5-5.1,15.5-12.7c0-6.9-3.9-10.9-14-14.7
		c-12.1-4.3-19.5-10.5-19.5-21c0-11.6,9.6-20.1,24-20.1c7.5,0,13.1,1.8,16.4,3.6l-2.6,7.8c-4.3-2.3-9.2-3.5-14-3.5
		c-10.1,0-14,6.1-14,11c0,6.9,4.4,10.4,14.7,14.3c12.5,4.8,18.8,10.9,18.8,21.7c0,11.4-8.5,21.3-25.8,21.3c-7.1,0-14.9-2-18.8-4.7
		L160.3,85.2z"/>
	<rect x="215.8" y="22.8" class="st0" width="40" height="8.1"/>
	<rect x="215.8" y="54.2" class="st0" width="38.4" height="8.1"/>
	<rect x="215.8" y="88.8" class="st0" width="40.8" height="8.1"/>
	<rect x="2.5" y="2.5" class="st1" width="269.3" height="111.5"/>
</g>
</svg>
